<svg width="338" height="26" viewBox="0 0 338 26" fill="none" xmlns="http://www.w3.org/2000/svg">
<line x1="1.5" y1="5.5" x2="336.5" y2="5.5" stroke="white" stroke-width="3" stroke-linecap="round"/>
<path d="M2.761 23.11C2.21833 23.11 1.74533 22.9853 1.342 22.736C0.946 22.4867 0.572 22.0687 0.22 21.482L1.144 20.899C1.32733 21.1703 1.507 21.394 1.683 21.57C1.86633 21.7387 2.05333 21.8633 2.244 21.944C2.43467 22.0247 2.63633 22.065 2.849 22.065C3.10567 22.065 3.344 22.0027 3.564 21.878C3.784 21.746 3.96 21.5663 4.092 21.339C4.224 21.1117 4.29 20.855 4.29 20.569C4.29 20.283 4.23867 20.041 4.136 19.843C4.03333 19.6377 3.883 19.4837 3.685 19.381C3.487 19.271 3.25233 19.216 2.981 19.216C2.85633 19.216 2.72433 19.2307 2.585 19.26C2.453 19.282 2.31 19.3187 2.156 19.37C2.002 19.414 1.83333 19.4727 1.65 19.546L1.32 18.677L3.696 16.059L3.927 16.4H0.649V15.3H5.06L5.28 15.74L2.761 18.534L2.486 18.248C2.54467 18.2187 2.64 18.193 2.772 18.171C2.91133 18.1417 3.025 18.127 3.113 18.127C3.43567 18.127 3.73633 18.1893 4.015 18.314C4.301 18.4313 4.54667 18.6 4.752 18.82C4.96467 19.0327 5.12967 19.2857 5.247 19.579C5.37167 19.865 5.434 20.173 5.434 20.503C5.434 21.0017 5.313 21.449 5.071 21.845C4.83633 22.2337 4.51733 22.5417 4.114 22.769C3.71067 22.9963 3.25967 23.11 2.761 23.11ZM7.07627 23.11C6.83427 23.11 6.64727 23.0403 6.51527 22.901C6.38327 22.7543 6.31727 22.549 6.31727 22.285C6.31727 22.043 6.38693 21.845 6.52627 21.691C6.6656 21.537 6.84893 21.46 7.07627 21.46C7.31827 21.46 7.50527 21.5333 7.63727 21.68C7.76927 21.8193 7.83527 22.021 7.83527 22.285C7.83527 22.527 7.7656 22.725 7.62627 22.879C7.48693 23.033 7.3036 23.11 7.07627 23.11ZM7.07627 18.765C6.83427 18.765 6.64727 18.6953 6.51527 18.556C6.38327 18.4093 6.31727 18.204 6.31727 17.94C6.31727 17.698 6.38693 17.5 6.52627 17.346C6.6656 17.192 6.84893 17.115 7.07627 17.115C7.31827 17.115 7.50527 17.1883 7.63727 17.335C7.76927 17.4743 7.83527 17.676 7.83527 17.94C7.83527 18.182 7.7656 18.38 7.62627 18.534C7.48693 18.688 7.3036 18.765 7.07627 18.765ZM11.0862 23.11C10.5435 23.11 10.0705 22.9853 9.6672 22.736C9.2712 22.4867 8.8972 22.0687 8.5452 21.482L9.4692 20.899C9.65253 21.1703 9.8322 21.394 10.0082 21.57C10.1915 21.7387 10.3785 21.8633 10.5692 21.944C10.7599 22.0247 10.9615 22.065 11.1742 22.065C11.4309 22.065 11.6692 22.0027 11.8892 21.878C12.1092 21.746 12.2852 21.5663 12.4172 21.339C12.5492 21.1117 12.6152 20.855 12.6152 20.569C12.6152 20.283 12.5639 20.041 12.4612 19.843C12.3585 19.6377 12.2082 19.4837 12.0102 19.381C11.8122 19.271 11.5775 19.216 11.3062 19.216C11.1815 19.216 11.0495 19.2307 10.9102 19.26C10.7782 19.282 10.6352 19.3187 10.4812 19.37C10.3272 19.414 10.1585 19.4727 9.9752 19.546L9.6452 18.677L12.0212 16.059L12.2522 16.4H8.9742V15.3H13.3852L13.6052 15.74L11.0862 18.534L10.8112 18.248C10.8699 18.2187 10.9652 18.193 11.0972 18.171C11.2365 18.1417 11.3502 18.127 11.4382 18.127C11.7609 18.127 12.0615 18.1893 12.3402 18.314C12.6262 18.4313 12.8719 18.6 13.0772 18.82C13.2899 19.0327 13.4549 19.2857 13.5722 19.579C13.6969 19.865 13.7592 20.173 13.7592 20.503C13.7592 21.0017 13.6382 21.449 13.3962 21.845C13.1615 22.2337 12.8425 22.5417 12.4392 22.769C12.0359 22.9963 11.5849 23.11 11.0862 23.11ZM15.3795 23L18.5695 16.048L18.7015 16.4H14.8075V15.3H19.5705L19.7245 16.059L16.6555 23H15.3795Z" fill="#9EA2AE"/>
<path d="M312.583 20.415V19.293H315.751V20.415H312.583ZM318.716 22.461V16.213L319.123 16.521L317.605 17.324L317.286 16.29L319.343 15.19H319.915V22.461H318.716ZM317.495 23V21.856H321.169V23H317.495ZM323.083 23.11C322.841 23.11 322.654 23.0403 322.522 22.901C322.39 22.7543 322.324 22.549 322.324 22.285C322.324 22.043 322.394 21.845 322.533 21.691C322.672 21.537 322.856 21.46 323.083 21.46C323.325 21.46 323.512 21.5333 323.644 21.68C323.776 21.8193 323.842 22.021 323.842 22.285C323.842 22.527 323.772 22.725 323.633 22.879C323.494 23.033 323.31 23.11 323.083 23.11ZM323.083 18.765C322.841 18.765 322.654 18.6953 322.522 18.556C322.39 18.4093 322.324 18.204 322.324 17.94C322.324 17.698 322.394 17.5 322.533 17.346C322.672 17.192 322.856 17.115 323.083 17.115C323.325 17.115 323.512 17.1883 323.644 17.335C323.776 17.4743 323.842 17.676 323.842 17.94C323.842 18.182 323.772 18.38 323.633 18.534C323.494 18.688 323.31 18.765 323.083 18.765ZM327.665 23.11C327.078 23.11 326.572 22.9487 326.147 22.626C325.729 22.3033 325.406 21.8487 325.179 21.262C324.952 20.668 324.838 19.964 324.838 19.15C324.838 18.336 324.952 17.6357 325.179 17.049C325.406 16.455 325.729 15.9967 326.147 15.674C326.572 15.3513 327.078 15.19 327.665 15.19C328.252 15.19 328.758 15.3513 329.183 15.674C329.608 15.9967 329.935 16.455 330.162 17.049C330.389 17.6357 330.503 18.336 330.503 19.15C330.503 19.964 330.389 20.668 330.162 21.262C329.935 21.8487 329.608 22.3033 329.183 22.626C328.758 22.9487 328.252 23.11 327.665 23.11ZM327.665 22.032C328.2 22.032 328.615 21.7827 328.908 21.284C329.201 20.778 329.348 20.0667 329.348 19.15C329.348 18.2333 329.201 17.5257 328.908 17.027C328.615 16.521 328.2 16.268 327.665 16.268C327.13 16.268 326.715 16.521 326.422 17.027C326.129 17.5257 325.982 18.2333 325.982 19.15C325.982 20.0667 326.129 20.778 326.422 21.284C326.715 21.7827 327.13 22.032 327.665 22.032ZM332.037 23L331.674 22.098L334.028 19.447C334.152 19.315 334.281 19.1647 334.413 18.996C334.552 18.82 334.684 18.6403 334.809 18.457C334.933 18.2737 335.032 18.094 335.106 17.918C335.186 17.7347 335.227 17.5623 335.227 17.401C335.227 17.1663 335.179 16.9683 335.084 16.807C334.996 16.6383 334.864 16.51 334.688 16.422C334.519 16.334 334.314 16.29 334.072 16.29C333.859 16.29 333.65 16.3523 333.445 16.477C333.239 16.6017 333.052 16.7777 332.884 17.005C332.715 17.2323 332.583 17.4963 332.488 17.797L331.575 17.225C331.699 16.7997 331.886 16.4367 332.136 16.136C332.392 15.828 332.697 15.5933 333.049 15.432C333.408 15.2707 333.797 15.19 334.215 15.19C334.647 15.19 335.032 15.2817 335.37 15.465C335.707 15.641 335.971 15.8903 336.162 16.213C336.352 16.5283 336.448 16.895 336.448 17.313C336.448 17.4817 336.429 17.654 336.393 17.83C336.356 18.006 336.297 18.1893 336.217 18.38C336.136 18.5633 336.033 18.7577 335.909 18.963C335.784 19.161 335.634 19.37 335.458 19.59C335.289 19.81 335.095 20.041 334.875 20.283L333.126 22.186L332.906 21.856H336.69V23H332.037Z" fill="#9EA2AE"/>
<line x1="251.5" y1="5.5" x2="336.506" y2="5.5" stroke="#6C778D" stroke-width="3" stroke-linecap="round"/>
<circle cx="248.5" cy="5.5" r="5.5" fill="white"/>
</svg>
