<svg width="22" height="23" viewBox="0 0 22 23" fill="none" xmlns="http://www.w3.org/2000/svg">
<path d="M8.15004 14.2929C7.75951 14.6834 7.75951 15.3166 8.15004 15.7071L14.514 22.0711C14.9045 22.4616 15.5377 22.4616 15.9282 22.0711C16.3187 21.6805 16.3187 21.0474 15.9282 20.6569L10.2714 15L15.9282 9.34315C16.3187 8.95262 16.3187 8.31946 15.9282 7.92893C15.5377 7.53841 14.9045 7.53841 14.514 7.92893L8.15004 14.2929ZM18 15V14L8.85714 14V15V16H18V15ZM21 4H20V12H21H22V4H21ZM4 1V2L18 2V1V0L4 0L4 1ZM5.28571 15V14H4V15V16H5.28571V15ZM1 12L2 12V4H1H0V12H1ZM4 15V14C2.89543 14 2 13.1046 2 12L1 12H0C0 14.2091 1.79086 16 4 16V15ZM4 1L4 0C1.79086 0 0 1.79086 0 4H1H2C2 2.89543 2.89543 2 4 2V1ZM21 4H22C22 1.79086 20.2091 0 18 0V1V2C19.1046 2 20 2.89543 20 4H21ZM18 15V16C20.2091 16 22 14.2091 22 12H21H20C20 13.1046 19.1046 14 18 14V15Z" fill="white"/>
</svg>
