<svg width="37" height="30" viewBox="0 0 37 30" fill="none" xmlns="http://www.w3.org/2000/svg">
<path d="M5.13472 5.22226C5.56414 5.22226 5.92462 4.8995 5.93989 4.50136C5.95515 4.10322 5.61941 3.78047 5.19 3.78047L5.16236 4.50137L5.13472 5.22226ZM33.2016 20.1407C33.5161 19.8592 33.5336 19.4028 33.2407 19.1212L28.4686 14.5334C28.1758 14.2519 27.6835 14.2519 27.369 14.5334C27.0546 14.8149 27.0371 15.2714 27.3299 15.5529L31.5718 19.631L27.017 23.7089C26.7026 23.9904 26.6851 24.4469 26.9779 24.7284C27.2707 25.0099 27.763 25.0099 28.0775 24.7284L33.2016 20.1407ZM24.1807 19.6309L24.3592 18.9238L24.1807 19.6309ZM5.16236 4.50137C5.19 3.78047 5.18999 3.78047 5.18998 3.78047C5.18997 3.78047 5.18995 3.78047 5.18993 3.78047C5.18988 3.78047 5.18981 3.78047 5.18972 3.78047C5.18954 3.78047 5.18927 3.78047 5.18891 3.78047C5.18819 3.78047 5.18713 3.78047 5.18575 3.78047C5.18299 3.78047 5.17896 3.78047 5.1739 3.78047C5.16378 3.78047 5.14951 3.78047 5.13292 3.78047C5.09974 3.78047 5.05727 3.78048 5.02014 3.78048C4.98303 3.78048 4.95118 3.78048 4.93928 3.78048C4.93687 3.78048 4.93421 3.78048 4.93321 3.78048C4.93281 3.78048 4.93078 3.78049 4.92914 3.7805C4.1293 4.49989 4.87371 5.22225 4.87679 5.22227C4.87729 5.22227 4.878 5.22227 4.87822 5.22227C4.87835 5.22227 4.87855 5.22227 4.87865 5.22227C4.87898 5.22227 4.87937 5.22227 4.87968 5.22227C4.8804 5.22227 4.8815 5.22227 4.88297 5.22227C4.88889 5.22227 4.90161 5.22227 4.92292 5.22227C5.09353 5.22228 5.81707 5.22229 8.02878 5.22231L8.05643 4.50141L8.08408 3.78052C5.87235 3.7805 5.14885 3.78049 4.97829 3.78048C4.95695 3.78048 4.94431 3.78048 4.93848 3.78048C4.93702 3.78048 4.93603 3.78048 4.93546 3.78048C4.93513 3.78048 4.93508 3.78048 4.93515 3.78048C4.93519 3.78048 4.93534 3.78048 4.93543 3.78048C4.93561 3.78048 4.93629 3.78048 4.93677 3.78048C4.93983 3.7805 5.68424 4.50286 4.88441 5.22225C4.88278 5.22226 4.88077 5.22227 4.8804 5.22227C4.87988 5.22227 4.88065 5.22227 4.88417 5.22227C4.89598 5.22227 4.92774 5.22227 4.96489 5.22227C5.00201 5.22226 5.04447 5.22226 5.07765 5.22226C5.09424 5.22226 5.10851 5.22226 5.11863 5.22226C5.12369 5.22226 5.12771 5.22226 5.13047 5.22226C5.13185 5.22226 5.13291 5.22226 5.13363 5.22226C5.13399 5.22226 5.13426 5.22226 5.13445 5.22226C5.13454 5.22226 5.13461 5.22226 5.13465 5.22226C5.13468 5.22226 5.13469 5.22226 5.13471 5.22226C5.13472 5.22226 5.13472 5.22226 5.16236 4.50137ZM8.05643 4.50141L8.02878 5.22231C8.35797 5.22231 8.72764 5.34586 9.16349 5.6592C9.60277 5.97502 10.0626 6.45062 10.5567 7.07336C11.5552 8.33182 12.5608 10.0113 13.7694 11.839C16.1152 15.3866 19.1884 19.4454 24.0021 20.338L24.1807 19.6309L24.3592 18.9238C20.2646 18.1646 17.4874 14.6586 15.1041 11.0544C13.9481 9.30622 12.8694 7.51308 11.8218 6.19286C11.2929 5.52627 10.7392 4.93602 10.1443 4.50832C9.54598 4.07816 8.86076 3.78052 8.08408 3.78052L8.05643 4.50141ZM24.1807 19.6309L24.0021 20.338C25.6892 20.6508 26.8796 20.6506 28.1479 20.5733C29.4076 20.4966 30.6715 20.3518 32.6437 20.3519L32.6714 19.631L32.699 18.9101C30.6588 18.91 29.2813 19.0627 28.1008 19.1347C26.9289 19.2061 25.8803 19.2059 24.3592 18.9238L24.1807 19.6309Z" fill="url(#paint0_linear_12_123)"/>
<g filter="url(#filter0_d_12_123)">
<path d="M31.973 5.8225C32.2654 5.54081 32.2475 5.08408 31.933 4.80235L26.8075 0.211349C26.493 -0.0703782 26.001 -0.0704145 25.7086 0.211268C25.4161 0.492949 25.4341 0.949682 25.7486 1.23141L30.3045 5.3123L26.0688 9.39254C25.7764 9.67422 25.7943 10.131 26.1088 10.4127C26.4234 10.6944 26.9154 10.6944 27.2078 10.4128L31.973 5.8225ZM4.9433 20.3834C4.9149 19.662 4.91489 19.662 4.91487 19.662C4.91485 19.662 4.91482 19.662 4.91478 19.662C4.91469 19.662 4.91457 19.662 4.91441 19.662C4.91408 19.662 4.91359 19.662 4.91295 19.662C4.91166 19.662 4.90975 19.662 4.90726 19.662C4.90228 19.662 4.895 19.662 4.88576 19.662C4.86729 19.662 4.84102 19.662 4.8098 19.662C4.74736 19.662 4.66515 19.662 4.58604 19.662C4.50694 19.662 4.43094 19.662 4.38093 19.662C4.35595 19.662 4.33738 19.662 4.32817 19.662C4.32588 19.662 4.32409 19.662 4.3229 19.662C4.32238 19.662 4.32172 19.662 4.32116 19.662C4.32099 19.662 4.32063 19.662 4.3204 19.662C4.31999 19.662 4.3186 19.6621 4.31759 19.6621C4.30692 19.6622 3.57368 20.3923 4.37214 21.1047C4.37399 21.1047 4.37637 21.1047 4.37692 21.1047C4.37854 21.1047 4.38312 21.1047 4.38851 21.1047C4.48815 21.1048 5.36994 21.1048 8.49836 21.1047L8.46998 20.3834L8.4416 19.662C5.31304 19.6621 4.43149 19.6621 4.33203 19.662C4.32499 19.662 4.32324 19.662 4.32391 19.662C4.32441 19.662 4.32675 19.6621 4.32858 19.6621C5.12702 20.3745 4.39379 21.1046 4.38314 21.1047C4.38216 21.1047 4.38081 21.1047 4.38047 21.1047C4.38031 21.1047 4.38004 21.1047 4.37997 21.1047C4.37984 21.1047 4.37994 21.1047 4.38048 21.1047C4.38143 21.1047 4.38304 21.1047 4.38532 21.1047C4.39438 21.1047 4.41281 21.1047 4.43782 21.1047C4.4878 21.1047 4.56377 21.1047 4.64287 21.1047C4.72197 21.1047 4.80418 21.1047 4.86661 21.1047C4.89783 21.1047 4.9241 21.1047 4.94257 21.1047C4.95181 21.1047 4.95909 21.1047 4.96407 21.1047C4.96655 21.1047 4.96846 21.1047 4.96975 21.1047C4.9704 21.1047 4.97088 21.1047 4.97121 21.1047C4.97138 21.1047 4.9715 21.1047 4.97158 21.1047C4.97162 21.1047 4.97165 21.1047 4.97167 21.1047C4.9717 21.1047 4.97171 21.1047 4.9433 20.3834ZM8.46998 20.3834L8.49836 21.1047C10.4188 21.1047 11.951 19.9494 13.2141 18.4929C14.4896 17.0222 15.6305 15.0791 16.7214 13.2087C17.8303 11.3073 18.8878 9.48102 20.0265 8.12269C21.1825 6.7438 22.2711 6.03356 23.3821 6.03356L23.3537 5.31222L23.3254 4.59087C21.4713 4.59086 19.9989 5.7645 18.7858 7.21143C17.5556 8.67893 16.4359 10.6204 15.3474 12.4868C14.2407 14.3842 13.1636 16.2089 11.9885 17.564C10.8009 18.9333 9.64963 19.662 8.4416 19.662L8.46998 20.3834ZM23.3537 5.31222L23.3821 6.03356C26.3473 6.03357 28.3597 6.03361 29.6308 6.03365C30.2664 6.03367 30.7166 6.03369 31.008 6.03371C31.1537 6.03372 31.2596 6.03372 31.3292 6.03373C31.3639 6.03373 31.3896 6.03373 31.4066 6.03373C31.415 6.03373 31.4213 6.03373 31.4255 6.03373C31.4276 6.03373 31.4292 6.03373 31.4302 6.03373C31.4308 6.03373 31.4311 6.03373 31.4314 6.03373C31.4315 6.03373 31.4316 6.03373 31.4317 6.03373C31.4317 6.03373 31.4318 6.03373 31.4318 6.03373C31.4318 6.03373 31.4318 6.03373 31.4035 5.31238C31.3752 4.59104 31.3752 4.59103 31.3752 4.59104C31.3751 4.59104 31.3751 4.59104 31.3751 4.59104C31.375 4.59103 31.3749 4.59104 31.3748 4.59104C31.3745 4.59104 31.3741 4.59104 31.3736 4.59104C31.3726 4.59104 31.371 4.59103 31.3689 4.59103C31.3647 4.59103 31.3584 4.59103 31.3499 4.59103C31.333 4.59103 31.3073 4.59103 31.2725 4.59103C31.203 4.59102 31.097 4.59102 30.9513 4.59101C30.66 4.591 30.2097 4.59098 29.5742 4.59096C28.303 4.59091 26.2906 4.59087 23.3254 4.59087L23.3537 5.31222Z" fill="#1ED760"/>
</g>
<defs>
<filter id="filter0_d_12_123" x="0" y="0" width="36.1811" height="29.1047" filterUnits="userSpaceOnUse" color-interpolation-filters="sRGB">
<feFlood flood-opacity="0" result="BackgroundImageFix"/>
<feColorMatrix in="SourceAlpha" type="matrix" values="0 0 0 0 0 0 0 0 0 0 0 0 0 0 0 0 0 0 127 0" result="hardAlpha"/>
<feOffset dy="4"/>
<feGaussianBlur stdDeviation="2"/>
<feComposite in2="hardAlpha" operator="out"/>
<feColorMatrix type="matrix" values="0 0 0 0 0 0 0 0 0 0 0 0 0 0 0 0 0 0 0.25 0"/>
<feBlend mode="normal" in2="BackgroundImageFix" result="effect1_dropShadow_12_123"/>
<feBlend mode="normal" in="SourceGraphic" in2="effect1_dropShadow_12_123" result="shape"/>
</filter>
<linearGradient id="paint0_linear_12_123" x1="4.30649" y1="5.36102" x2="30.0723" y2="23.3531" gradientUnits="userSpaceOnUse">
<stop offset="0.400718" stop-color="#1ED760"/>
<stop offset="0.403814" stop-color="#1ED760" stop-opacity="0"/>
<stop offset="0.483063" stop-color="#1ED760" stop-opacity="0"/>
<stop offset="0.488592" stop-color="#1ED760"/>
</linearGradient>
</defs>
</svg>
