<svg width="37" height="30" viewBox="0 0 37 30" fill="none" xmlns="http://www.w3.org/2000/svg">
<path d="M5.13476 5.22226C5.56417 5.22226 5.92466 4.8995 5.93992 4.50136C5.95519 4.10322 5.61945 3.78047 5.19003 3.78047L5.1624 4.50137L5.13476 5.22226ZM33.2017 20.1407C33.5161 19.8592 33.5336 19.4028 33.2408 19.1212L28.4686 14.5334C28.1758 14.2519 27.6835 14.2519 27.369 14.5334C27.0546 14.8149 27.0371 15.2714 27.3299 15.5529L31.5718 19.631L27.017 23.7089C26.7026 23.9904 26.6851 24.4469 26.9779 24.7284C27.2708 25.0099 27.7631 25.0099 28.0775 24.7284L33.2017 20.1407ZM24.1807 19.6309L24.3593 18.9238L24.1807 19.6309ZM5.1624 4.50137C5.19003 3.78047 5.19003 3.78047 5.19002 3.78047C5.19 3.78047 5.18999 3.78047 5.18996 3.78047C5.18992 3.78047 5.18985 3.78047 5.18976 3.78047C5.18957 3.78047 5.1893 3.78047 5.18894 3.78047C5.18822 3.78047 5.18716 3.78047 5.18578 3.78047C5.18302 3.78047 5.179 3.78047 5.17394 3.78047C5.16381 3.78047 5.14954 3.78047 5.13295 3.78047C5.09977 3.78047 5.05731 3.78048 5.02017 3.78048C4.98306 3.78048 4.95121 3.78048 4.93931 3.78048C4.93691 3.78048 4.93424 3.78048 4.93324 3.78048C4.93284 3.78048 4.93081 3.78049 4.92917 3.7805C4.12934 4.49989 4.87375 5.22225 4.87682 5.22227C4.87732 5.22227 4.87803 5.22227 4.87825 5.22227C4.87838 5.22227 4.87858 5.22227 4.87869 5.22227C4.87901 5.22227 4.8794 5.22227 4.87972 5.22227C4.88043 5.22227 4.88153 5.22227 4.883 5.22227C4.88892 5.22227 4.90164 5.22227 4.92296 5.22227C5.09357 5.22228 5.8171 5.22229 8.02882 5.22231L8.05647 4.50141L8.08412 3.78052C5.87239 3.7805 5.14889 3.78049 4.97832 3.78048C4.95699 3.78048 4.94434 3.78048 4.93852 3.78048C4.93705 3.78048 4.93607 3.78048 4.9355 3.78048C4.93517 3.78048 4.93511 3.78048 4.93518 3.78048C4.93522 3.78048 4.93537 3.78048 4.93546 3.78048C4.93564 3.78048 4.93632 3.78048 4.9368 3.78048C4.93986 3.7805 5.68427 4.50286 4.88445 5.22225C4.88281 5.22226 4.8808 5.22227 4.88043 5.22227C4.87992 5.22227 4.88069 5.22227 4.88421 5.22227C4.89602 5.22227 4.92777 5.22227 4.96492 5.22227C5.00205 5.22226 5.04451 5.22226 5.07769 5.22226C5.09427 5.22226 5.10854 5.22226 5.11866 5.22226C5.12372 5.22226 5.12775 5.22226 5.13051 5.22226C5.13189 5.22226 5.13295 5.22226 5.13367 5.22226C5.13403 5.22226 5.1343 5.22226 5.13448 5.22226C5.13457 5.22226 5.13464 5.22226 5.13469 5.22226C5.13471 5.22226 5.13473 5.22226 5.13474 5.22226C5.13475 5.22226 5.13476 5.22226 5.1624 4.50137ZM8.05647 4.50141L8.02882 5.22231C8.358 5.22231 8.72768 5.34586 9.16353 5.6592C9.60281 5.97502 10.0626 6.45062 10.5567 7.07336C11.5552 8.33182 12.5608 10.0113 13.7694 11.839C16.1152 15.3866 19.1885 19.4454 24.0021 20.338L24.1807 19.6309L24.3593 18.9238C20.2646 18.1646 17.4875 14.6586 15.1041 11.0544C13.9481 9.30622 12.8694 7.51308 11.8219 6.19286C11.2929 5.52627 10.7393 4.93602 10.1443 4.50832C9.54601 4.07816 8.86079 3.78052 8.08412 3.78052L8.05647 4.50141ZM24.1807 19.6309L24.0021 20.338C25.6892 20.6508 26.8796 20.6506 28.1479 20.5733C29.4077 20.4966 30.6715 20.3518 32.6438 20.3519L32.6714 19.631L32.6991 18.9101C30.6588 18.91 29.2813 19.0627 28.1009 19.1347C26.929 19.2061 25.8803 19.2059 24.3593 18.9238L24.1807 19.6309Z" fill="url(#paint0_linear_12_248)"/>
<g filter="url(#filter0_d_12_248)">
<path d="M31.973 5.8225C32.2654 5.54081 32.2475 5.08408 31.933 4.80235L26.8075 0.211349C26.493 -0.0703782 26.001 -0.0704145 25.7086 0.211268C25.4162 0.492949 25.4341 0.949682 25.7486 1.23141L30.3046 5.3123L26.0688 9.39254C25.7764 9.67422 25.7943 10.131 26.1089 10.4127C26.4234 10.6944 26.9154 10.6944 27.2078 10.4128L31.973 5.8225ZM4.94333 20.3834C4.91492 19.662 4.91491 19.662 4.91489 19.662C4.91487 19.662 4.91484 19.662 4.9148 19.662C4.91472 19.662 4.91459 19.662 4.91443 19.662C4.9141 19.662 4.91361 19.662 4.91297 19.662C4.91168 19.662 4.90977 19.662 4.90728 19.662C4.90231 19.662 4.89502 19.662 4.88579 19.662C4.86732 19.662 4.84104 19.662 4.80982 19.662C4.74738 19.662 4.66517 19.662 4.58607 19.662C4.50697 19.662 4.43096 19.662 4.38095 19.662C4.35597 19.662 4.33741 19.662 4.3282 19.662C4.3259 19.662 4.32411 19.662 4.32292 19.662C4.3224 19.662 4.32174 19.662 4.32118 19.662C4.32101 19.662 4.32065 19.662 4.32042 19.662C4.32002 19.662 4.31863 19.6621 4.31762 19.6621C4.30694 19.6622 3.57371 20.3923 4.37217 21.1047C4.37401 21.1047 4.37639 21.1047 4.37695 21.1047C4.37856 21.1047 4.38314 21.1047 4.38854 21.1047C4.48818 21.1048 5.36997 21.1048 8.49838 21.1047L8.47 20.3834L8.44162 19.662C5.31306 19.6621 4.43151 19.6621 4.33206 19.662C4.32501 19.662 4.32326 19.662 4.32393 19.662C4.32443 19.662 4.32677 19.6621 4.3286 19.6621C5.12704 20.3745 4.39381 21.1046 4.38316 21.1047C4.38218 21.1047 4.38083 21.1047 4.3805 21.1047C4.38033 21.1047 4.38006 21.1047 4.37999 21.1047C4.37986 21.1047 4.37996 21.1047 4.38051 21.1047C4.38146 21.1047 4.38306 21.1047 4.38534 21.1047C4.3944 21.1047 4.41284 21.1047 4.43785 21.1047C4.48782 21.1047 4.5638 21.1047 4.6429 21.1047C4.72199 21.1047 4.8042 21.1047 4.86664 21.1047C4.89785 21.1047 4.92413 21.1047 4.9426 21.1047C4.95183 21.1047 4.95911 21.1047 4.96409 21.1047C4.96658 21.1047 4.96849 21.1047 4.96977 21.1047C4.97042 21.1047 4.97091 21.1047 4.97123 21.1047C4.9714 21.1047 4.97152 21.1047 4.9716 21.1047C4.97165 21.1047 4.97168 21.1047 4.9717 21.1047C4.97172 21.1047 4.97173 21.1047 4.94333 20.3834ZM8.47 20.3834L8.49838 21.1047C10.4188 21.1047 11.951 19.9494 13.2141 18.4929C14.4896 17.0222 15.6305 15.0791 16.7214 13.2087C17.8303 11.3073 18.8878 9.48102 20.0266 8.12269C21.1826 6.7438 22.2711 6.03356 23.3821 6.03356L23.3538 5.31222L23.3254 4.59087C21.4713 4.59086 19.9989 5.7645 18.7858 7.21143C17.5556 8.67893 16.4359 10.6204 15.3474 12.4868C14.2407 14.3842 13.1637 16.2089 11.9885 17.564C10.8009 18.9333 9.64966 19.662 8.44162 19.662L8.47 20.3834ZM23.3538 5.31222L23.3821 6.03356C26.3473 6.03357 28.3597 6.03361 29.6309 6.03365C30.2664 6.03367 30.7167 6.03369 31.008 6.03371C31.1537 6.03372 31.2596 6.03372 31.3292 6.03373C31.3639 6.03373 31.3896 6.03373 31.4066 6.03373C31.4151 6.03373 31.4214 6.03373 31.4256 6.03373C31.4277 6.03373 31.4292 6.03373 31.4303 6.03373C31.4308 6.03373 31.4312 6.03373 31.4314 6.03373C31.4316 6.03373 31.4317 6.03373 31.4317 6.03373C31.4318 6.03373 31.4318 6.03373 31.4318 6.03373C31.4318 6.03373 31.4318 6.03373 31.4035 5.31238C31.3752 4.59104 31.3752 4.59103 31.3752 4.59104C31.3752 4.59104 31.3751 4.59104 31.3751 4.59104C31.375 4.59103 31.3749 4.59104 31.3748 4.59104C31.3746 4.59104 31.3742 4.59104 31.3736 4.59104C31.3726 4.59104 31.371 4.59103 31.3689 4.59103C31.3648 4.59103 31.3584 4.59103 31.35 4.59103C31.333 4.59103 31.3073 4.59103 31.2725 4.59103C31.203 4.59102 31.0971 4.59102 30.9514 4.59101C30.66 4.591 30.2098 4.59098 29.5742 4.59096C28.303 4.59091 26.2906 4.59087 23.3254 4.59087L23.3538 5.31222Z" fill="white"/>
</g>
<defs>
<filter id="filter0_d_12_248" x="0" y="0" width="36.1811" height="29.1047" filterUnits="userSpaceOnUse" color-interpolation-filters="sRGB">
<feFlood flood-opacity="0" result="BackgroundImageFix"/>
<feColorMatrix in="SourceAlpha" type="matrix" values="0 0 0 0 0 0 0 0 0 0 0 0 0 0 0 0 0 0 127 0" result="hardAlpha"/>
<feOffset dy="4"/>
<feGaussianBlur stdDeviation="2"/>
<feComposite in2="hardAlpha" operator="out"/>
<feColorMatrix type="matrix" values="0 0 0 0 0 0 0 0 0 0 0 0 0 0 0 0 0 0 0.25 0"/>
<feBlend mode="normal" in2="BackgroundImageFix" result="effect1_dropShadow_12_248"/>
<feBlend mode="normal" in="SourceGraphic" in2="effect1_dropShadow_12_248" result="shape"/>
</filter>
<linearGradient id="paint0_linear_12_248" x1="4.30652" y1="5.36102" x2="30.0723" y2="23.3531" gradientUnits="userSpaceOnUse">
<stop offset="0.400718" stop-color="white"/>
<stop offset="0.403814" stop-color="white" stop-opacity="0"/>
<stop offset="0.483063" stop-color="white" stop-opacity="0"/>
<stop offset="0.488592" stop-color="white"/>
</linearGradient>
</defs>
</svg>
