<svg width="20" height="22" viewBox="0 0 20 22" fill="none" xmlns="http://www.w3.org/2000/svg">
<path d="M3.82317 8.75L1.25 8.75C0.973857 8.75 0.75 8.97386 0.75 9.25L0.75 20.25C0.75 20.5261 0.973858 20.75 1.25 20.75L18.25 20.75C18.5261 20.75 18.75 20.5261 18.75 20.25L18.75 9.25C18.75 8.97386 18.5261 8.75 18.25 8.75L15.6768 8.75" stroke="white" stroke-width="1.5" stroke-linecap="round"/>
<path d="M9 11.75C9 12.1642 9.33579 12.5 9.75 12.5C10.1642 12.5 10.5 12.1642 10.5 11.75H9.75H9ZM10.2803 0.21967C9.98744 -0.0732231 9.51256 -0.0732231 9.21967 0.21967L4.4467 4.99264C4.15381 5.28553 4.15381 5.76041 4.4467 6.0533C4.73959 6.34619 5.21447 6.34619 5.50736 6.0533L9.75 1.81066L13.9926 6.0533C14.2855 6.34619 14.7604 6.34619 15.0533 6.0533C15.3462 5.76041 15.3462 5.28553 15.0533 4.99264L10.2803 0.21967ZM9.75 11.75H10.5L10.5 0.75H9.75H9L9 11.75H9.75Z" fill="white"/>
</svg>
